# xmcd CD database file
#
# Track frame offsets:
#	150
#	17150
#	38026
#	62695
#	83334
#	101821
#	122127
#	144407
#	163373
#	185438
#	211564
#	229832
#
# Disc length: 3450 seconds
#
# Revision: 0
# Processed by: cddbd v1.5.2PL0 Copyright (c) Steve Scherf et al.
# Submitted via: CDex 1.70beta2
#
DISCID=9a0d780c
DTITLE=Térez Montcalm - Voodoo
DYEAR=2007
DGENRE=Jazz
TTITLE0=Terez Montcalm - Love
TTITLE1=Terez Montcalm - Growing Stronger
TTITLE2=Terez Montcalm - sweet dreams
TTITLE3=Terez Montcalm - Shattered
TTITLE4=Terez Montcalm - Close Your Eyes
TTITLE5=Terez Montcalm - Parce Que y a Toi...
TTITLE6=Terez Montcalm - Voodoo Child
TTITLE7=Terez Montcalm - I Want To Be Around
TTITLE8=Terez Montcalm - For Heaven's Sake
TTITLE9=Terez Montcalm - Sorry Seems To Be The Hardest
TTITLE10=Terez Montcalm - How Sweet It Is
TTITLE11=Terez Montcalm - Be Anything
EXTD=YEAR: 2007
EXTT0=
EXTT1=
EXTT2=
EXTT3=
EXTT4=
EXTT5=
EXTT6=
EXTT7=
EXTT8=
EXTT9=
EXTT10=
EXTT11=
PLAYORDER=
